/* XPM */
static char *adlancel35[] = {
/* columns rows colors chars-per-pixel */
"35 35 211 2 ",
"   c #4A3D39",
".  c #53443E",
"X  c #2D3447",
"o  c #31394F",
"O  c #363E52",
"+  c #3B445B",
"@  c #394155",
"#  c #3E4A62",
"$  c #564944",
"%  c #5D514D",
"&  c #595252",
"*  c #454A59",
"=  c #62534D",
"-  c #73564F",
";  c #685C5A",
":  c #7B5D54",
">  c #614B43",
",  c #6C615D",
"<  c #72635D",
"1  c #7A645C",
"2  c #414E68",
"3  c #49566D",
"4  c #495973",
"5  c #5C616F",
"6  c #746967",
"7  c #7A6C69",
"8  c #776863",
"9  c #706671",
"0  c #7B7676",
"q  c #6B6B71",
"w  c #995858",
"e  c #94685A",
"r  c #826255",
"t  c #A46B5C",
"y  c #BE645F",
"u  c #B7725F",
"i  c #846D69",
"p  c #8C6D68",
"a  c #916C60",
"s  c #9C6F61",
"d  c #946E68",
"f  c #87726D",
"g  c #9A766D",
"h  c #94746C",
"j  c #837473",
"k  c #8A7A77",
"l  c #947D7A",
"z  c #997971",
"x  c #A96661",
"c  c #AD7667",
"v  c #A8786A",
"b  c #B47564",
"n  c #BE7663",
"m  c #B67B6B",
"M  c #B8776A",
"N  c #A97B76",
"B  c #BC7C72",
"V  c #B57573",
"C  c #C37662",
"Z  c #CA7D6A",
"A  c #C77A69",
"S  c #C97A75",
"D  c #D17B74",
"F  c #C26667",
"G  c #99837B",
"H  c #AA806F",
"J  c #B1806E",
"K  c #AD837A",
"L  c #A9847A",
"P  c #BD8D7E",
"I  c #B68578",
"U  c #C8816D",
"Y  c #D1836C",
"T  c #C48474",
"R  c #CB8572",
"E  c #CC857C",
"W  c #CB8C7B",
"Q  c #C4887B",
"!  c #D68770",
"~  c #D88B77",
"^  c #D3927E",
"/  c #DE927E",
"(  c #787C86",
")  c #6E7D95",
"_  c #847F81",
"`  c #7A8598",
"'  c #8B8787",
"]  c #9D8D89",
"[  c #968A87",
"{  c #95979C",
"}  c #99979A",
"|  c #9B9A9C",
" . c #999494",
".. c #A48B84",
"X. c #AB8C84",
"o. c #A68A84",
"O. c #B38D85",
"+. c #B48C86",
"@. c #A79189",
"#. c #BC9086",
"$. c #B8958B",
"%. c #A39C9D",
"&. c #A89794",
"*. c #B69D95",
"=. c #B89994",
"-. c #ACA09D",
";. c #B9A09C",
":. c #9D9FA3",
">. c #8697AE",
",. c #A29FA0",
"<. c #9EA1A6",
"1. c #9FA3A8",
"2. c #96A3B9",
"3. c #A1A2A7",
"4. c #A1A4A9",
"5. c #A6A9AD",
"6. c #ABA8A8",
"7. c #BAA7A6",
"8. c #ABAEB3",
"9. c #A9ADB8",
"0. c #BFAEB3",
"q. c #ADB1B5",
"w. c #C48B85",
"e. c #CB8C83",
"r. c #C58582",
"t. c #D48A84",
"y. c #C3938A",
"u. c #CC948C",
"i. c #CC988E",
"p. c #C89686",
"a. c #D49582",
"s. c #DB9584",
"d. c #DC9B84",
"f. c #D2968B",
"g. c #DB958B",
"h. c #D49A8C",
"j. c #DD9B8C",
"k. c #D79E87",
"l. c #C59C93",
"z. c #CB9C92",
"x. c #C79895",
"c. c #D29B93",
"v. c #DB9E92",
"b. c #E19A86",
"n. c #E49D8C",
"m. c #E19583",
"M. c #E79D92",
"N. c #E69A93",
"B. c #CFA18F",
"V. c #CCA194",
"C. c #C4A39C",
"Z. c #CCA49A",
"A. c #CCAA9D",
"S. c #DCA394",
"D. c #D3A59B",
"F. c #DEA59A",
"G. c #DCAC9D",
"H. c #D6A594",
"J. c #DCA089",
"K. c #E4A28E",
"L. c #E5A493",
"P. c #E8A494",
"I. c #E3A59B",
"U. c #EBA69E",
"Y. c #E3AB9C",
"T. c #E9AB9D",
"R. c #E3A893",
"E. c #E7B19E",
"W. c #EAB09D",
"Q. c #CAA8A3",
"!. c #D3ABA2",
"~. c #DDADA3",
"^. c #D9B4AC",
"/. c #D8B4A7",
"(. c #C8B8B4",
"). c #DBBCB4",
"_. c #CBB2AC",
"`. c #EBA7A0",
"'. c #E5ACA2",
"]. c #EAACA1",
"[. c #E4A7A2",
"{. c #F1AEA5",
"}. c #E5B2A4",
"|. c #EBB2A5",
" X c #E5B3AA",
".X c #EBB5AB",
"XX c #ECB9AC",
"oX c #E5BAA9",
"OX c #F1B2A5",
"+X c #F3B5AC",
"@X c #F2BAAE",
"#X c #EDBCB3",
"$X c #E4BBB1",
"%X c #F5B7B2",
"&X c #F3BCB3",
"*X c #D9C2BA",
"=X c #EDC1B7",
"-X c #E9C2BA",
";X c #F3C5BB",
":X c #F5C3B8",
">X c #B7BECC",
",X c #BDC7D7",
"<X c #BFCDE0",
"1X c #CDC9CE",
"2X c #E9C9C2",
"3X c #F1CAC3",
"4X c #F2CEC8",
"5X c #F1D1CB",
"6X c #EFD5D0",
"7X c #CAD7E8",
"8X c #CAD6E7",
/* pixels */
":.<.<.<.<.<.<.<.4.4.4.4.4.4.4.3.} [ [  .,.5.5.5.5.8.8.8.8.8.8.8.8.8.8.",
"<.<.<.<.<.<.3.<.4.4.3.4.:.:. .G g s e e g G  .5.8.8.8.8.8.8.8.8.8.8.8.",
"<.<.<.<.<.<.<.<.3.3.3.} ' z v c c b m c m I I @.%.5.8.8.8.8.8.8.8.8.8.",
"<.<.<.<.<.<.<.3.:. .k i s c b n Z U Z T W W W ^ O.[ 5.8.8.8.8.8.q.8.8.",
"<.<.<.<.<.<.1.:.7 ; - t b n A Z ! ~ / n.n.n.d.s.^ P [ 3.8.8.8.8.8.8.8.",
"<.<.<.<.<.<.<.; . > e u C C A ! ~ / b.M.P.L.K.K.d.^ P 7 :.8.8.8.8.8.8.",
"<.<.<.<.<.<.0   . : u u C Z Y ~ / m.n.P.T.T.P.K.b.b.a.v 7 5.8.8.8.8.q.",
"<.<.<.<.<.{   . = v u C A Y ! / b.K.I.T.|.|.T.Y.L.K.s.^ r [ 8.8.8.8.8.",
"<.<.<.<.<.0   $ 1 I A U R ~ s.n.L.T.|.#X#X=XXX|.].P.K.d.J 1 <.8.8.8.8.",
"<.<.<.<.<.6 $ = h T U R ^ j.I.T.]..X#X3X5X6X4X3X#X].I.K.a.1 0 8.8.8.8.",
"<.<.<.<.1.& $ ; h Q W ^ h.Y.'.T.T.|.&X;X3X4X3X3X=XT.K.K.k.a = 5.8.8.8.",
"<.3.1.1.:.% ; < h I W a.S.'.}.Y.T.T.T.XX=X#X#X#X'.L.K.R.J.H % ' 8.8.8.",
"<.3.1.3.} % 6 f p K p.h.F.Y.}.XXXX.X.X.X.X.X.X|.}.}.|.W.d.I 8 0 8.8.8.",
"<.<.3.4.} ; 8 k f N h.v.I.Y.Y.Y.F. X#X&X&X&X&X&X.X}.}.oXR.P 8 ' 8.8.8.",
"<.<.3.3.:., 7 j f K h.S.F.c.v g p +.!.#X&X+X#X Xl.g : H Y.p.< ' 8.8.8.",
"<.3.3.4.<.6 7 k l y.g.S.~.i.!.^.).D.c.'.=X&XXXc.I O.Z.D.h.p., | q.8.8.",
"<.3.3.3.3.N p j l u.v.I.~. X#XXX XG.T.].;X;XY.T S.XX#X=Xp.B.< 5.8.8.8.",
"<.<.3.4.3.D r.j l h.F.G. X~.Q h a i.W S.:X:XY.n t a H Q G.G.f 7.q.q.q.",
"<.1.4.4.3.F I.l o.f.L.}.}.j.'.!.D..XI.|.+X+X|.a.W v l.m k.}.L 7.q.q.q.",
"<.<.3.4.4.r.M.w...f.L.|.'.T.|.&X@X.XXXOX|.OXOX].g.j.T.L.W.E...q.q.q.q.",
"<.<.3.4.4.=.N.A K f.j.'.T.{.+X&X&X&XOXOX].U.{.T.@X.X|.OXOXE.] q.q.q.q.",
"<.1.3.4.4.%.N.S W t.s.I..X&X%X%X:X%X+X].P.].+XT.|.%X&X&X|.F.%.q.q.q.q.",
"3.3.4.4.4._ D y B T s.I.'..X%X%X&X{.g.U.U.`.&X&Xs.{.&X@XW.H.8.q.q.q.q.",
"3.4.4.4.4.& x g.B Q g.Y.F.'.&X%XU.t.t.E c. X.XI.E D +XOXT.h.5.q.q.q.q.",
"1.4.4.4.4.; - S m e.g.[.F.I..X[.e.z.y.N N d g O.y.x U.{.Y.V.8.q.q.q.q.",
"3.4.4.4.4.0 i t.S u.h.S.~.D.D.+.=.@.X.X.z i X.=.O.=.P Y.F.l.8.q.q.q.q.",
"1.4.4.4.4.' l e.u.y.f.f.~.z.D.X.o.O.w.u.e.S t.w.L X.$.H.B.*.q.q.q.q.q.",
"<.4.4.4.4.4.[ E w.y.c.y.z.l.~.l.I x x V B B V w M P /.Z.$.6.q.q.q.q.q.",
"<.3.4.4.4.( 9 E y.l.i.z.l.l.~.!.S.'..X.X[.[.[.S.S.B.$XA.*.8.q.q.q.q.q.",
"<.3.4.4.4.* ` y.u.l.y.i.#.$.l.!. X|.G.D.!.!.Z.z.S././.$.6.q.q.q.q.q.q.",
"<.3.4.4.( X 3 >Xz.z.z.#.K L X.).-XXX=X&X.X~. XXXoX*X$...8.q.q.q.q.q.q.",
"1.3.4.{ O X o 2.,XQ.D.i.#.X.O.).-X$X.X.XXX#X X}.).1X@.%.q.q.q.q.q.q.q.",
"<.4.4.5 + O @ 3 <X1XQ.Z.z.$.C.Q.*X2X-X#X.X X~./.*X7.] q.q.q.q.q.q.q.q.",
"3.:.q + + # + 2 ) 7X8X0.l.l.V.C.(.*X).^.!.l.C._.(.[ } ,Xq.q.q.q.q.q.q.",
"( @ O # # 2 # 2 4 >.7X7X9.&.C.C.;.C.7.*.] l &.-.&.k 9.,X>Xq.q.q.q.q.q."
};
