/* XPM */
static char *barrel35[] = {
/* columns rows colors chars-per-pixel */
"35 35 217 2 ",
"   c None",
".  c #3A3428",
"X  c #3E392F",
"o  c #313131",
"O  c #343434",
"+  c #393733",
"@  c #3C3933",
"#  c gray22",
"$  c #393939",
"%  c #3A3A3A",
"&  c #3C3C3C",
"*  c #3F3F3F",
"=  c #46351C",
"-  c #4C3A1A",
";  c #4D3A1A",
":  c #4A391E",
">  c #513B1C",
",  c #503B1E",
"<  c #513C1C",
"1  c #533C1C",
"2  c #533D1C",
"3  c #533C1D",
"4  c #523D1F",
"5  c #543D1D",
"6  c #563E1D",
"7  c #583E1E",
"8  c #5A3F1F",
"9  c #463A28",
"0  c #473B2A",
"q  c #523D20",
"w  c #513E21",
"e  c #563E20",
"r  c #413C32",
"t  c #453D32",
"y  c #5B401E",
"u  c #574020",
"i  c #5F4220",
"p  c #5D4123",
"a  c #5D4223",
"s  c #524029",
"d  c #4A4132",
"f  c #494237",
"g  c #4D4335",
"h  c #4B463C",
"j  c #504539",
"k  c #53473A",
"l  c #51483D",
"z  c #51493E",
"x  c #594C3F",
"c  c #634322",
"v  c #654423",
"b  c #634425",
"n  c #684624",
"m  c #6C4725",
"M  c #6F4925",
"N  c #6E4926",
"B  c #6B4A2A",
"V  c #714927",
"C  c #704A27",
"Z  c #724A27",
"A  c #724B27",
"S  c #734B28",
"D  c #764C29",
"F  c #764D29",
"G  c #764C2A",
"H  c #774D2A",
"J  c #784C29",
"K  c #794D29",
"L  c #7C4F2B",
"P  c #7C502B",
"I  c #78502D",
"U  c #79522F",
"Y  c #7E502C",
"T  c #7F502C",
"R  c #71563F",
"E  c #434343",
"W  c #454442",
"Q  c #454545",
"!  c #474747",
"~  c #484848",
"^  c #4A4A4A",
"/  c #4C4C4C",
"(  c #4D4D4D",
")  c #4E4E4E",
"_  c #524A40",
"`  c #574D41",
"'  c #5B4F43",
"]  c #5F4F42",
"[  c #5B5247",
"{  c #5C5246",
"}  c #5F564B",
"|  c #515151",
" . c #535353",
".. c #545454",
"X. c #555555",
"o. c #565656",
"O. c #575757",
"+. c #585858",
"@. c #595959",
"#. c #5B5B5B",
"$. c gray36",
"%. c #5D5D5D",
"&. c #685545",
"*. c #67594C",
"=. c #65594E",
"-. c #6B594B",
";. c #6C594B",
":. c #6E5D4F",
">. c #705946",
",. c #6A5E53",
"<. c #705E51",
"1. c #6F6357",
"2. c #706254",
"3. c #736254",
"4. c #746254",
"5. c #766457",
"6. c #796353",
"7. c #776759",
"8. c #74675C",
"9. c #7A6A5D",
"0. c #7E6C5E",
"q. c #606060",
"w. c #616161",
"e. c #626262",
"r. c #646464",
"t. c #656565",
"y. c #676767",
"u. c #6F6861",
"i. c #686868",
"p. c #6A6A6A",
"a. c #6B6B6B",
"s. c #7D6E63",
"d. c gray44",
"f. c #727272",
"g. c #737373",
"h. c #757575",
"j. c #767676",
"k. c #7C7672",
"l. c #787878",
"z. c #7C7C7C",
"x. c #7E7E7E",
"c. c #7F7F7F",
"v. c #83532E",
"b. c #84562F",
"n. c #805430",
"m. c #875630",
"M. c #875731",
"N. c #855734",
"B. c #895730",
"V. c #8B5932",
"C. c #8D5932",
"Z. c #8D5A32",
"A. c #8D5B33",
"S. c #8F5B33",
"D. c #8C5E39",
"F. c #905C34",
"G. c #915C34",
"H. c #915D37",
"J. c #945D36",
"K. c #945E36",
"L. c #955E37",
"P. c #965E36",
"I. c #965F37",
"U. c #985F38",
"Y. c #976038",
"T. c #91613E",
"R. c #94623C",
"E. c #996038",
"W. c #9A6138",
"Q. c #9B6039",
"!. c #9A6239",
"~. c #9B6239",
"^. c #9C6038",
"/. c #9C613A",
"(. c #9D633A",
"). c #9E633B",
"_. c #98623C",
"`. c #9D663E",
"'. c #A3653D",
"]. c #A2663C",
"[. c #A3663C",
"{. c #A2663E",
"}. c #A3663E",
"|. c #A5683E",
" X c #A96A3F",
".X c #9B6843",
"XX c #9E6944",
"oX c #976949",
"OX c #8D6C55",
"+X c #836959",
"@X c #876C5B",
"#X c #876F5E",
"$X c #AD6F43",
"%X c #AF6E42",
"&X c #AB6E45",
"*X c #B06F43",
"=X c #B07043",
"-X c #B37144",
";X c #B37045",
":X c #B47044",
">X c #B67345",
",X c #B57346",
"<X c #B87446",
"1X c #8F7866",
"2X c #8D7869",
"3X c #8C796B",
"4X c #897A6D",
"5X c #8C7A6D",
"6X c #927664",
"7X c #9B7D69",
"8X c #9B7E6B",
"9X c #887F79",
"0X c #9C826F",
"qX c #808080",
"wX c #818181",
"eX c #848484",
"rX c #8C8C8C",
/* pixels */
"                                                                      ",
"                                                                      ",
"                                                                      ",
"                                                                      ",
"                                                                      ",
"                                                                      ",
"                                                                      ",
"                                                                      ",
"                                                                      ",
"                                                                      ",
"                                                                      ",
"                                                                      ",
"                                                                      ",
"                                                                      ",
"                                                                      ",
"                                                                      ",
"                                                                      ",
"                        a.e.e.e.e.t.a.d.d.z.z.                        ",
"                      qXa.| ) ) ) ) ^ ) | ..| ....                    ",
"                    J.OX5X4Xs.8.1.,.=.[ _ h r X :                     ",
"                    F.).$X}. XQ.J.U.C.C C n i y < -                   ",
"                    T..X$X;X,XQ.).}.J.F K L c B w d                   ",
"                  #.j.qX0X7X6X#X@X+X6.-.;.&.x ! & @                   ",
"                  >.u.d.z.d.d.a.t.$.....| ^ ^ & # 9                   ",
"                  C.F.&XR.`._.I N.n.I b i i u e < <                   ",
"                  C.J.<X=X,X,X).}.).C.F F L N 8 5 <                   ",
"                  C.J.<X=X,X,XQ.}.).C.F F L N 8 5 <                   ",
"                  D.J.<X=X,X,XQ.}.).C.F K L N 8 5 w                   ",
"                  k.1X7X$X,X;XJ.}.Q.C.F F Y N s g W                   ",
"                  e.j.qXrXl.j.d.a.t.e.$.#.| ) ^ # +                   ",
"                    >.<.4.5.2.} =.{ ` l l j f 9 = ,                   ",
"                    F.J.}.|.).Y V.M.b.n C C 5 8 < -                   ",
"                    9.oXXXQ.}.v.B.C.b.v K C < < ,                     ",
"                      eX9X3X3X0.8.2.:.' ] j t .                       ",
"                        a.t.e.#...| ! E # O o                         "
};
