/* XPM */
static char *windows35[] = {
/* columns rows colors chars-per-pixel */
"35 20 212 2 ",
"   c #1A360A",
".  c #1E3B0C",
"X  c #173309",
"o  c #1D2914",
"O  c #223D0B",
"+  c #22390A",
"@  c #262B16",
"#  c #2A3814",
"$  c #363B10",
"%  c #171C34",
"&  c #322529",
"*  c #4F2A3D",
"=  c #2C4507",
"-  c #24420C",
";  c #2B430D",
":  c #2C4A0B",
">  c #254207",
",  c #314406",
"<  c #334B07",
"1  c #344D0A",
"2  c #3C4A0A",
"3  c #3F460E",
"4  c #345007",
"5  c #375108",
"6  c #3C530C",
"7  c #3E580D",
"8  c #294311",
"9  c #3C4B13",
"0  c #3B4513",
"q  c #424E0F",
"w  c #484C09",
"e  c #46590C",
"r  c #484913",
"t  c #445316",
"y  c #4A5713",
"u  c #4E5D15",
"i  c #4C5C19",
"p  c #515F11",
"a  c #57591A",
"s  c #51460E",
"d  c #615B17",
"f  c #4C650B",
"g  c #596B0E",
"h  c #54690E",
"j  c #4E6414",
"k  c #526311",
"l  c #5C6412",
"z  c #5A6917",
"x  c #5D7510",
"c  c #62670E",
"v  c #64740D",
"b  c #69780F",
"n  c #686615",
"m  c #657813",
"M  c #6E7C12",
"N  c #667716",
"B  c #747C17",
"V  c #796D16",
"C  c #434726",
"Z  c #504D2C",
"A  c #5A5621",
"S  c #4D5E32",
"D  c #565936",
"F  c #676B29",
"G  c #74782A",
"H  c #555C69",
"J  c #44676B",
"K  c #5D616E",
"L  c #5F7D66",
"P  c #4A6A78",
"I  c #53717C",
"U  c #537474",
"Y  c #5B6370",
"T  c #677769",
"R  c #627B7F",
"E  c #777C61",
"W  c #74830F",
"Q  c #7C8C0D",
"!  c #79850F",
"~  c #7F920E",
"^  c #7A8D12",
"/  c #778619",
"(  c #7D9212",
")  c #6B820F",
"_  c #718B20",
"`  c #7E9753",
"'  c #5E8074",
"]  c #75936A",
"[  c #638475",
"{  c #70856F",
"}  c #82810D",
"|  c #818C0F",
" . c #85930E",
".. c #9E910F",
"X. c #848E14",
"o. c #829214",
"O. c #8C9C13",
"+. c #87961A",
"@. c #8D9C1B",
"#. c #889616",
"$. c #939E12",
"%. c #949E15",
"&. c #AA9417",
"*. c #98A70F",
"=. c #8FA113",
"-. c #94A214",
";. c #9DAC13",
":. c #97A417",
">. c #A6B40F",
",. c #AEBB0E",
"<. c #A2AE14",
"1. c #A2AD1B",
"2. c #A3B212",
"3. c #ADBB12",
"4. c #ACB51B",
"5. c #AAB71C",
"6. c #B2BE12",
"7. c #B3BC1A",
"8. c #B4BB15",
"9. c #BBA412",
"0. c #8DA121",
"q. c #95A622",
"w. c #A2B220",
"e. c #B9C50E",
"r. c #BFC90E",
"t. c #B1C00F",
"y. c #B5C314",
"u. c #BAC313",
"i. c #BBCA12",
"p. c #B3C018",
"a. c #BCC41A",
"s. c #BFC819",
"d. c #C1CB0D",
"f. c #CBD30E",
"g. c #C1C613",
"h. c #C3CB15",
"j. c #C3CA18",
"k. c #C5D112",
"l. c #CCD513",
"z. c #CFD912",
"x. c #86917F",
"c. c #507FBB",
"v. c #567FB6",
"b. c #5E8388",
"n. c #6E938C",
"m. c #6F8F8B",
"M. c #7691B6",
"N. c #3D8BD6",
"B. c #3A8FDF",
"V. c #3587D3",
"C. c #4A85C6",
"Z. c #468DD6",
"A. c #5695D8",
"S. c #719BCE",
"D. c #8B99AC",
"F. c #8495AE",
"G. c #879BB5",
"H. c #919EB1",
"J. c #96A2AD",
"K. c #9CA6B4",
"L. c #9FAAB7",
"P. c #9BA9BB",
"I. c #97A4B6",
"U. c #A2ACBA",
"Y. c #A2AEB7",
"T. c #A5B0BC",
"R. c #ACB5BC",
"E. c #A9B2B6",
"W. c #85A3C8",
"Q. c #92A9C8",
"!. c #86A9D5",
"~. c #8DB2DD",
"^. c #98B5DA",
"/. c #A2AEC0",
"(. c #A5B2C3",
"). c #AAB5C3",
"_. c #AEB8C5",
"`. c #A9B7C8",
"'. c #AFBACA",
"]. c #B2BAC5",
"[. c #B4BDCA",
"{. c #B9BFC8",
"}. c #96B9E0",
"|. c #BAC2CD",
" X c #B6C1CD",
".X c #BBC4D2",
"XX c #B2C0D5",
"oX c #B8C8E0",
"OX c #C2C8CF",
"+X c #C2C7CD",
"@X c #C1C7D1",
"#X c #C4CAD4",
"$X c #C9CED5",
"%X c #C9CED8",
"&X c #C5CCDA",
"*X c #CED1D6",
"=X c #CBD1DB",
"-X c #D2D6DD",
";X c #D7DADE",
":X c #DBDDDE",
">X c #C8D2E3",
",X c #D0D7E2",
"<X c #D4D9E5",
"1X c #DBDDE1",
"2X c #DEE1E5",
"3X c #DCE1EA",
"4X c #E1E3E5",
"5X c #E2E4EA",
"6X c #E8EAEB",
"7X c #E7E8EB",
"8X c #EDEEF0",
"9X c #F2F2F2",
/* pixels */
"M.M.M.K.M.v.c.c.C.C.S.!.W.Z.V.V.V.Z.A.Z.N.N.N.Z.A.!.oX>X7X5X<X<X>X>X3X",
"(./.U.U.H.G.W.Q.Q.|.*X@X).^.!.^.~.!.!.~.}.~.A.B.B.~.,X2X8X9X8X7X5X<X6X",
"].).).U.T./.'.[.[.[.].[..X@X4X7X=X@X#X4X7X2X=X>X[.|.@X1X1X1X-X#X.X#X3X",
"|.+X+XT.L.I.U.[.$X[. X=X1X-X=X4X4X;X,X4X@X&X=X=X%X$X].).U.U.U.).[.&X<X",
"K.Y.].T.K.).].-X:X$X$XOX*X;X*X@X:X$X#X$X@X|.#X-X%X1X-X%X.X.X&X=X<X,X-X",
"D.J.J.K.J.I.U.R.R.R.L.J.D.D.P.U.{.).].).{.].].(.(.[.'.).`.[..X$X$X|._.",
"E.E.E.Y.L.U.U.T.T.P.G.D.D.F.H.U.(.P.).(._./.(.].|.[.(.`.(.`. X+X].P.F.",
"K H Y T v.I I ' U { { { L J J P I I [ [ ] ] ] ` T U b.n.n.n.b.m.x.E D ",
"& % % * * C D Z A d a n B X.G F S _ -.( o./ z a F #.B C A n n r # # # ",
"l l n V n w s s @ o @ @ 0 d &.9...} l c } } c y q 2 2 1 +       + ; 6 ",
"q q y l ! $.$.v 3 $ 3 0 8 8 ; ; O 8 8 - . - : : O X   > : 1 1 1 6 e k ",
"y p p p p p g v Q | k . X X   . . - : : : > .     + = 1 7 e e h v W o.",
"N M M W ! b g k p k W $.^ g f h f 7 1 1 6 e f g m ) ( O.*.>.,.>.~ v e ",
"m M ( O.-.-. .Q  .o.Q ^ #.;.3.y.y.3.y.u.u.e.e.e.e.r.d.r.,. .g < > = = ",
"$.O.O.o.^ =.;.2.;.>.r.f.f.k.h.h.l.l.z.f.f.f.f.d.6.*. .x 1 < < 4 4 1 5 ",
"=.-.<.3.,.3.3.6.6.t.i.i.k.l.l.l.z.z.z.k.h.h.y.3.<.O.v < = = < < < 1 5 ",
"N ^ O.-.<.;.<.2.3.3.y.i.y.p.a.a.s.h.h.h.j.u.y.u.3.W 2 , , , < < < < < ",
"9 t u z B o.-.;.2.3.3.6.u.h.j.j.h.g.s.s.s.p.7.7.5.:.:.@.o.o.|  . .Q Q ",
"0 9 t y i i z N / @.1.7.y.a.a.a.7.7.a.s.a.a.7.4.1.:.+.#.-.<.,.e.g.h.h.",
"t t t t t i j z z N / +.:.1.4.7.7.4.7.5.w.q.q.0.@.+.@.@.%.-.;.<.;.;.<."
};
