/* XPM */
static char *horizon35[] = {
/* columns rows colors chars-per-pixel */
"35 23 207 2 ",
"   c #1F1B33",
".  c #241C34",
"X  c #2B1B30",
"o  c #22253C",
"O  c #2B243C",
"+  c #25293A",
"@  c #2C2D3B",
"#  c #272037",
"$  c #312D3D",
"%  c #30263E",
"&  c #33313E",
"*  c #38333F",
"=  c #402532",
"-  c #212641",
";  c #242943",
":  c #2C2C45",
">  c #332C43",
",  c #392E44",
"<  c #2A3141",
"1  c #353542",
"2  c #393643",
"3  c #3C3A45",
"4  c #36324A",
"5  c #3C344A",
"6  c #3B3C49",
"7  c #423D46",
"8  c #43364B",
"9  c #4C3749",
"0  c #443C49",
"q  c #4C394B",
"w  c #5A3C46",
"e  c #543B4C",
"r  c #5B3C4B",
"t  c #523B46",
"y  c #613E46",
"u  c #633C4B",
"i  c #6B3F4D",
"p  c #6F3746",
"a  c #7A3B48",
"s  c #3F404C",
"d  c #454048",
"f  c #4C4349",
"g  c #4C4247",
"h  c #524247",
"j  c #52464A",
"k  c #5B454A",
"l  c #57494B",
"z  c #5C4B4C",
"x  c #5A4146",
"c  c #4B4358",
"v  c #4A4650",
"b  c #544559",
"n  c #5B475A",
"m  c #57495D",
"M  c #5D4B5E",
"N  c #654047",
"B  c #6A4045",
"V  c #624449",
"C  c #6B434A",
"Z  c #644C4B",
"A  c #6B4E4B",
"S  c #744245",
"D  c #73424B",
"F  c #7A454B",
"G  c #744B4A",
"H  c #7A4C4A",
"J  c #64504D",
"K  c #6B524D",
"L  c #74534C",
"P  c #7B544C",
"I  c #7B584D",
"U  c #624A5D",
"Y  c #6B4C5E",
"T  c #734D5D",
"R  c #7B4E5D",
"E  c #7B525F",
"W  c #6D4E60",
"Q  c #7C5661",
"!  c #785764",
"~  c #C43D3B",
"^  c #863A45",
"/  c #9A3840",
"(  c #8C4E47",
")  c #84464A",
"_  c #8A464A",
"`  c #844B49",
"'  c #884544",
"]  c #964B46",
"[  c #9D4E47",
"{  c #924A48",
"}  c #9B4849",
"|  c #83544B",
" . c #8B5449",
".. c #845A4D",
"X. c #8C5A4B",
"o. c #9A5647",
"O. c #925C4B",
"+. c #9D5E48",
"@. c #945348",
"#. c #874E5B",
"$. c #83515D",
"%. c #8B545D",
"&. c #93585D",
"*. c #9A575B",
"=. c #974E58",
"-. c #A84A46",
";. c #B44E48",
":. c #A85146",
">. c #A25D47",
",. c #A55947",
"<. c #B65545",
"1. c #B35E45",
"2. c #BD5C45",
"3. c #AC5D5A",
"4. c #A75558",
"5. c #BB5456",
"6. c #9E615F",
"7. c #BF6245",
"8. c #A6655E",
"9. c #A7685F",
"0. c #B3695D",
"q. c #BB685C",
"w. c #835A61",
"e. c #8B5C61",
"r. c #945E60",
"t. c #8B6265",
"y. c #8D6669",
"u. c #946464",
"i. c #9B6662",
"p. c #9C6A65",
"a. c #946D6B",
"s. c #9B716C",
"d. c #90706F",
"f. c #876D72",
"g. c #8D7D7D",
"h. c #9B7C75",
"j. c #937D7A",
"k. c #927372",
"l. c #A36E65",
"z. c #AB7266",
"x. c #A67A6E",
"c. c #AA7D6F",
"v. c #A47469",
"b. c #BA7966",
"n. c #B37567",
"m. c #AB7D70",
"M. c #C54F45",
"N. c #C75545",
"B. c #D45943",
"V. c #CD5554",
"C. c #F25D41",
"Z. c #EE5F50",
"A. c #E75842",
"S. c #DE6143",
"D. c #C26258",
"F. c #C46E5E",
"G. c #CB6F5D",
"H. c #D56657",
"J. c #CF6E52",
"K. c #E66542",
"L. c #F36541",
"P. c #E86C55",
"I. c #F16150",
"U. c #E5795C",
"Y. c #F97C52",
"T. c #F37757",
"R. c #C47D65",
"E. c #9C817B",
"W. c #BA836F",
"Q. c #B7816F",
"!. c #AC8576",
"~. c #AB8578",
"^. c #AD8B7E",
"/. c #A4857C",
"(. c #BB8C76",
"). c #B38D7D",
"_. c #BB8B78",
"`. c #B38473",
"'. c #B8917F",
"]. c #F0815B",
"[. c #F98151",
"{. c #CC8B6E",
"}. c #C4886F",
"|. c #DB8666",
" X c #D38E6E",
".X c #D28565",
"XX c #C28F78",
"oX c #C69179",
"OX c #CC9379",
"+X c #E38964",
"@X c #EB9064",
"#X c #8F8080",
"$X c #9B8683",
"%X c #938281",
"&X c #A48B85",
"*X c #AA8E88",
"=X c #AD9187",
"-X c #B39187",
";X c #BB9282",
":X c #B39488",
">X c #BA9688",
",X c #BE9988",
"<X c #C59783",
"1X c #C19582",
"2X c #C89883",
"3X c #C39B89",
"4X c #C89782",
/* pixels */
"g.g.#X%X%X$X$X$X&X&X&X&X*X=X=X-X-X>X>X>X,X3X3X3X3X3X3X3X3X3X,X>X:X:X=X",
"f.k.j.j.j.E.E.E./././.^.^.^.).).;X;X;X;X1X<X<X<X4X2X2X<X<X1X'.'.).).^.",
"! y.d.k.h.h.h.h.h.h./.~.~.~.!.`._._._.XXoXOXOXOXOXOXOXOXoXXX(.(.`.!.!.",
"t.y.y.a.a.a.a.s.s.s.v.x.m.m.m.m.m.Q.W.}.{.{. X X X X X{.{.{.{.}.W.c.x.",
"Q w.w.e.t.u.u.u.i.p.p.p.p.l.l.z.z.n.b.R.R..X|.|.+X+X+X@X+X.Xb.z.z.l.p.",
"M Y E ! Q Q w.e.e.r.r.r.r.6.8.8.0.0.0.q.F.G.U.T.T.].].U.G.F.q.0.9.i.u.",
"n m m M U U Y Y T $.$.%.%.%.&.*.3.3.3.q.D.H.P.T.Y.[.Y.P.H.D.3.*.&.%.%.",
"c c b b n n n U U Y Y T T T R R $.%.%.=.4.4.5.V.I.Y.Z.V.4.=.#.$.R T T ",
"; ; ; ; - - - - ; ; ; : o o o o ; > , % O . .   . = X . . . O % > > , ",
": 4 4 4 4 5 8 8 8 q q q q q q e e r N N N N B S ' -.' S N y r r e e e ",
"4 4 5 5 8 8 8 8 q q e e e e e r u i D a a ^ ^ / ~ L.~ / a p u u r r e ",
"5 5 8 8 q q e e r u u i C D F ) _ _ { } -.;.M.B.C.L.A.M.-.} _ F D C C ",
"8 q 9 9 e e r r u C D D D F ) _ ] ] [ :.:.<.2.B.K.K.S.N.<.:.[ { ` F F ",
"e r w w y N B C S D F D F H ` ` ( ( @.o.o.,.1.1.1.2.J.7.1.,.@. .` H G ",
"k x w w N V C C C C G G H H H P | |  .O.O.+.+.>.>.>.>.>.>.+.@. .| P G ",
"e w w x V V V Z Z A A L L L L P P | | X.X.X.O.O.O.O.O.O.X.X.....| P L ",
"8 t h h l k k z Z Z Z A A A A L L L P P I ................I I L L L K ",
"v f d g g j j l l l k z Z Z Z Z A A K L L L L P P I I L L L L K K J J ",
"v d 3 7 7 0 d f f f j j l l k z z Z Z Z A J K K K K K K K K J J J J J ",
"s 6 1 3 3 3 3 7 7 7 0 d f f f h j l l l z z z z z z z z z z z z l l l ",
"6 1 1 1 1 1 1 2 2 2 3 3 3 7 7 7 d f f f f f f j j j j j j j j f f f f ",
"< < @ @ @ @ & & & & * * 2 2 2 3 3 3 7 7 7 7 7 0 d d d d d f f f d d 7 ",
"+ o o o + + @ @ @ @ @ @ $ $ & & 1 1 1 2 2 2 3 3 3 3 3 3 3 3 3 3 3 3 3 "
};
