/* XPM */
static char *sample35[] = {
/* columns rows colors chars-per-pixel */
"35 23 221 2 ",
"   c #0E0C09",
".  c #120E06",
"X  c #1A0F07",
"o  c #151306",
"O  c #15120A",
"+  c #1C150A",
"@  c #1E1A09",
"#  c #1A1406",
"$  c #0E0E1C",
"%  c #100E13",
"&  c #151314",
"*  c #19161B",
"=  c #22170C",
"-  c #241C0B",
";  c #281F0B",
":  c #271C18",
">  c #1F200D",
",  c #2C240E",
"<  c #27240C",
"1  c #34290E",
"2  c #2E2C13",
"3  c #2C2414",
"4  c #312B13",
"5  c #342617",
"6  c #3B3313",
"7  c #393817",
"8  c #16142A",
"9  c #151536",
"0  c #0B0B21",
"q  c #251E2A",
"w  c #3A2F23",
"e  c #3B3522",
"r  c #202037",
"t  c #453A19",
"y  c #443731",
"u  c #543E25",
"i  c #3F431A",
"p  c #4A4B1E",
"a  c #444418",
"s  c #4E531E",
"d  c #474923",
"f  c #585723",
"g  c #444136",
"h  c #595237",
"j  c #4E5024",
"k  c #645924",
"l  c #6C5535",
"z  c #5E6125",
"x  c #636428",
"c  c #7A792D",
"v  c #1A1B44",
"b  c #121A56",
"n  c #1D2257",
"m  c #2F3257",
"M  c #111E6C",
"N  c #162574",
"B  c #1A2965",
"V  c #2E2E67",
"C  c #2E3570",
"Z  c #4E3C52",
"A  c #503E54",
"S  c #513E58",
"D  c #433B48",
"F  c #3D4443",
"G  c #3E4767",
"H  c #49434B",
"J  c #554944",
"K  c #454559",
"L  c #56415B",
"P  c #5C455B",
"I  c #574157",
"U  c #58565C",
"Y  c #61485E",
"T  c #766C5E",
"R  c #716E4C",
"E  c #574863",
"W  c #4F506E",
"Q  c #654C63",
"!  c #634A6A",
"~  c #6A4D6B",
"^  c #684C65",
"/  c #6E5169",
"(  c #6B506A",
")  c #72536C",
"_  c #79566F",
"`  c #6B4E72",
"'  c #654B70",
"]  c #6E5174",
"[  c #74537B",
"{  c #7B5779",
"}  c #704F6D",
"|  c #696771",
" . c #8A7537",
".. c #826D51",
"X. c #855D79",
"o. c #8A5D7C",
"O. c #845B75",
"+. c #905F7F",
"@. c #89637A",
"#. c #95647E",
"$. c #867A69",
"%. c #71847F",
"&. c #AF885D",
"*. c #BF9C67",
"=. c #949856",
"-. c #C5A25F",
";. c #D0AF77",
":. c #E4C578",
">. c #173099",
",. c #323985",
"<. c #24399A",
"1. c #2C398B",
"2. c #1734B1",
"3. c #233CB3",
"4. c #364B8D",
"5. c #3648A5",
"6. c #2A46B7",
"7. c #3045B7",
"8. c #3853BF",
"9. c #454B99",
"0. c #515891",
"q. c #7D5A87",
"w. c #5B6288",
"e. c #586295",
"r. c #6A708A",
"t. c #4A54A4",
"y. c #424FB1",
"u. c #4B57B0",
"i. c #5B68AB",
"p. c #576DB5",
"a. c #526BBA",
"s. c #6779B9",
"d. c #717EB4",
"f. c #6A76AE",
"g. c #1B41CA",
"h. c #2448C9",
"j. c #3152CD",
"k. c #2A5BE4",
"l. c #475ECA",
"z. c #4667CA",
"x. c #5D72C6",
"c. c #4F6BCD",
"v. c #6977C4",
"b. c #697AD1",
"n. c #5371E1",
"m. c #845A87",
"M. c #8E5F95",
"N. c #886388",
"B. c #976985",
"V. c #8C6498",
"C. c #986797",
"Z. c #9E7194",
"A. c #927680",
"S. c #A36C85",
"D. c #A06D8A",
"F. c #A97489",
"G. c #B37A8D",
"H. c #A16C98",
"J. c #AD7A93",
"K. c #A97499",
"L. c #B37C91",
"P. c #996BA5",
"I. c #9F74B2",
"U. c #A36DA8",
"Y. c #A973A9",
"T. c #B37EA9",
"R. c #A77AB7",
"E. c #B37CB1",
"W. c #7587B1",
"Q. c #6B83D8",
"!. c #708BE7",
"~. c #868795",
"^. c #B98296",
"/. c #8A88A0",
"(. c #B988A8",
"). c #BB89B9",
"_. c #B0A28E",
"`. c #C38B96",
"'. c #C9929B",
"]. c #D29C9C",
"[. c #DBA69B",
"{. c #E9B788",
"}. c #E1AD9A",
"|. c #E9B897",
" X c #C795A7",
".X c #C899B6",
"XX c #C793AD",
"oX c #D9A8A6",
"OX c #D7ABBE",
"+X c #DFB5B6",
"@X c #C2A1B0",
"#X c #E6B9A6",
"$X c #E3B9B7",
"%X c #EBC196",
"&X c #F5CC9A",
"*X c #F4C68F",
"=X c #FBE095",
"-X c #ECC5AA",
";X c #EDC8B8",
":X c #F5D4B1",
">X c #BD96C4",
",X c #B78BC4",
"<X c #C89BC6",
"1X c #CDA4CB",
"2X c #D4A9C5",
"3X c #DBB4CA",
"4X c #CCA6D3",
"5X c #D9B3D4",
"6X c #DEBAD3",
"7X c #DAB8D9",
"8X c #D2AAD1",
"9X c #E0BBD3",
"0X c #DAC9C6",
"qX c #EACCC9",
"wX c #E7D2C5",
"eX c #E5C5D7",
"rX c #F3D9D7",
"tX c #F2D6D0",
"yX c #F8E5D8",
"uX c #F8E1CA",
"iX c #F7E4E1",
/* pixels */
"F.o._ ) Q P P I P A Z A A Z Z Z A Z Z Z A S L L E E E ! ~ ` [ [ { { o.",
"J.B.X._ / ^ Q P I P I P I P I I I I I P L E ' ! ~ ` ] [ q.q.N.V.C.C.H.",
"J.D.B.X.) / ^ Q Q Y P P P P Y P P E ! ! ! ~ ` [ q.m.m.M.C.H.Y.Y.T.T.(.",
"^.F.B.X._ _ ) / ^ Q Y Y Q / Q ~ ^ ! ~ ] ` [ m.m.C.C.C.U.U.Y.E.)..X).).",
" XJ.B.#.@.O._ _ _ ) ) / ) / ~ ) ] ` ] { m.q.m.M.C.P.U.U.U.R.).2X<X<X1X",
" X^.J.F.B.#.#.o.O.O.O.X.X.O.{ _ _ { m.m.q.q.V.P.P.U.R.I.R.R.,X<X1X5X8X",
"oX'.^.L.F.S.S.S.#.#.#.#.#.m.o.@.N.B.Z.K.C.V.P.I.R.R.).,X,X<X4X8X9X5X>X",
"$XoX'.`.^.G.G.F.F.S.S.B.B.D.B.B.C.Z.K.T.(.(.)..X<X2X6X6X5X5X7X7X1X@.6 ",
";X#XoX].'.`.`.`.^.^.L.G.L.L.J.^.(.(.(.XX.XOX2X2X2X5X6X6XeX6X@XA.y ; , ",
":X-X#X#X}.[.[.[.].'.'.`.`.'. XoXoXXX.X.XOX3X3X6XeXeXeXrXqX..l X + @ < ",
"|.&X%X|.|.}.[.}.[.[.oXoXoXoX#X$X$X$X$XqXqXtXrXrXiXiX0XT 3 o - # . , @ ",
"3 u *.;.{.{.{.{.|.|.|.#X#X-X-X;X;X;XqXqXtXrXyXyXwXh 3 - # o @ # + , @ ",
"y : = 5 = u l l &.;.{.*X&X&X&X:X-X:X:XuXuXyXwX_.6 1 - - o o < @ + + o ",
"/.~.T J w 5 3 = = . - k  .-.:.;.4 l ;.=X..R t - < < , - + - 4 e y g U ",
"W 0.p.i.w.r.w.w.W E E K H D H J w e T $.U H H K K W w.w.w.e.f.x.b.v.d.",
"b r n 1.1.5.5.4.7.,.7.y.u.Q.i.W w k =.W.W.f.| ~.W.d.f.W.p.s.s.x.d.p.x.",
"9 9 N 2.3.,.1.7.,.y.b.!.z.<.v q 5 6 a c z %.p.a.t.t.j.l.5.K T U J E r.",
"m 9.e.i.t.v.n.j.j.c.6.<.n v 8 : 3 , 6 6 c f x R m 4.G z.k.8.t.1.C V V ",
"s.5.5.<.h.k.h.<.N b b 9 8 * : + + = , 1 k  .f 2 f f p d G 4.y.j.h.7.3.",
"2.>.N j.j.9.m 8 0 $ $ % + = + = = = , 4 1 t t 7 7 z z p 7 h g F m C <.",
"g.g.6.h.B 8 * & %     o + + + + + - ; ; ; , t t 2 a 2 x x z j j p < & ",
"N M M v $ & O O o .   o + # o # + + ; , ; , ; - p 2 o < 7 j j a i p 4 ",
"& 8 0 & + o o   .   . o + o o + # + , , = - ; 7 f 7 7 2 O > d < p a s "
};
