/* XPM */
static char *photo35[] = {
/* columns rows colors chars-per-pixel */
"35 20 211 2 ",
"   c #011834",
".  c #011E3A",
"X  c #01213D",
"o  c #5E1C02",
"O  c #531602",
"+  c #4B1404",
"@  c #631E02",
"#  c #5D2E0C",
"$  c #592907",
"%  c #562E06",
"&  c #682605",
"*  c #752802",
"=  c #69330B",
"-  c #7B3609",
";  c #6C3D1B",
":  c #683615",
">  c #7D3C13",
",  c #77431B",
"<  c #784623",
"1  c #7B5A37",
"2  c #012443",
"3  c #012B4C",
"4  c #012E51",
"5  c #013354",
"6  c #01365A",
"7  c #013B5C",
"8  c #013D63",
"9  c #01405E",
"0  c #014265",
"q  c #02466B",
"w  c #034C6C",
"e  c #074A64",
"r  c #04506F",
"t  c #1C5B66",
"y  c #024D72",
"u  c #035375",
"i  c #03567B",
"p  c #085B7A",
"a  c #116179",
"s  c #24636D",
"d  c #2C6B77",
"f  c #376F75",
"g  c #556754",
"h  c #5F705B",
"j  c #68745C",
"k  c #547975",
"l  c #677A6B",
"z  c #8C3301",
"x  c #893D09",
"c  c #953902",
"v  c #A43C01",
"b  c #8D480B",
"n  c #99480A",
"m  c #8C4814",
"M  c #97571A",
"N  c #985A08",
"B  c #AB4905",
"V  c #B74903",
"C  c #A9550C",
"Z  c #A55618",
"A  c #B0560E",
"S  c #AF630A",
"D  c #B6660B",
"F  c #A8621A",
"G  c #B76919",
"H  c #854B21",
"J  c #8B5528",
"K  c #965627",
"L  c #835F3A",
"P  c #A55C25",
"I  c #91683D",
"U  c #A86329",
"Y  c #B36923",
"T  c #B56A2A",
"R  c #BF7736",
"E  c #C85503",
"W  c #D25B03",
"Q  c #C44F02",
"!  c #DE6802",
"~  c #D97609",
"^  c #C06818",
"/  c #CA7818",
"(  c #D87913",
")  c #C9670B",
"_  c #E46C02",
"`  c #ED7302",
"'  c #E87A04",
"]  c #F17C02",
"[  c #E37F15",
"{  c #C97323",
"}  c #C9792A",
"|  c #C77827",
" . c #D27726",
".. c #C57D3B",
"X. c #E07E21",
"o. c #9C7042",
"O. c #A57843",
"+. c #7A8A71",
"@. c #BA8238",
"#. c #DA831A",
"$. c #CE870B",
"%. c #E9860A",
"&. c #F58302",
"*. c #F58C0F",
"=. c #F48908",
"-. c #EB990C",
";. c #FB9304",
":. c #F89E0B",
">. c #E5861A",
",. c #EC9413",
"<. c #F29613",
"1. c #F69717",
"2. c #F28811",
"3. c #F9A904",
"4. c #F9BB06",
"5. c #FBA61A",
"6. c #FCB91A",
"7. c #EFA709",
"8. c #D5812C",
"9. c #DD852E",
"0. c #DA8627",
"q. c #DB8938",
"w. c #C0873D",
"e. c #E88D27",
"r. c #F3942A",
"t. c #F49929",
"y. c #E89534",
"u. c #F39D37",
"i. c #F9A52C",
"p. c #F7A536",
"a. c #FBB33A",
"s. c #FBB32F",
"d. c #FDCE08",
"f. c #FDD80F",
"g. c #FDC828",
"h. c #FCC93C",
"j. c #FDD838",
"k. c #FDE435",
"l. c #FDE929",
"z. c #BA8648",
"x. c #8D8565",
"c. c #978C6B",
"v. c #A58D6A",
"b. c #A99768",
"n. c #AC9773",
"m. c #B39169",
"M. c #B9A478",
"N. c #CB8B42",
"B. c #CC9249",
"V. c #DB984B",
"C. c #DA9647",
"Z. c #D99C52",
"A. c #E99A44",
"S. c #E89B48",
"D. c #F19E44",
"F. c #F3A345",
"G. c #FAAB43",
"H. c #F5AE43",
"J. c #C49E6E",
"K. c #C2AC7F",
"L. c #DCB678",
"P. c #FACA4E",
"I. c #FDE64C",
"U. c #EFC16E",
"Y. c #F8D678",
"T. c #F4CD79",
"R. c #FDF279",
"E. c #035D81",
"W. c #036185",
"Q. c #066B8A",
"!. c #0A6C89",
"~. c #136C87",
"^. c #1D748D",
"/. c #056E90",
"(. c #0A7696",
"). c #147B98",
"_. c #277A8C",
"`. c #227A94",
"'. c #347487",
"]. c #417E8D",
"[. c #27839B",
"{. c #368699",
"}. c #388CA1",
"|. c #2384A0",
" X c #498C97",
".X c #568D97",
"XX c #5C9199",
"oX c #7C9585",
"OX c #679699",
"+X c #7A9A96",
"@X c #648480",
"#X c #4994A4",
"$X c #6D9BA0",
"%X c #7DA2A0",
"&X c #879688",
"*X c #929788",
"=X c #879E95",
"-X c #8AA098",
";X c #97A996",
":X c #87A28F",
">X c #A0A996",
",X c #B5B092",
"<X c #ADAB91",
"1X c #8FA8A1",
"2X c #B0B5A2",
"3X c #CDB689",
"4X c #D6BE91",
"5X c #E4CA96",
"6X c #F9E89D",
"7X c #FDF9BF",
"8X c #FDF9CD",
/* pixels */
"+ O O o @ @ * * * z v V Q W ! _ ` ` ` ` ` ` ` ` _ W Q E Q V v c z * * ",
"o @ o @ & & * * z c V E W _ ` ] &.&.&.&.] ] &.&.&.` ! _ _ W V B c - - ",
"o & & & * * * z n B V A ) ~ ' %.2.*.2.*.2.*.*.;.;.;.&.&.' E C n x - - ",
"$ $ $ = = = > m Z ^ ( ( >.>.e.r.r.r.r.r.r.t.i.5.1.1.>.[ ( G Z Z Z m b ",
"# # : : ; ; H K K T } 9.y.p.u.u.u.F.G.G.G.a.a.p.r.e.e.9.8.} { ^ G A A ",
": ; , < < < J U T ....N.C.S.S.A.D.F.u.u.u.i.i.i.u.t.e.0.>.>.>.#./ Y F ",
", , H J J K U U T T R q.F.F.A.q.q.9.y.a.P.P.h.6.:.1.r.t.u.y.y.9.0.#./ ",
"m M M F Y { | } } | 8.y.i.y. .{  .X.1.5.6.d.f.j.j.j.g.6.5.5.:.<.%.%.~ ",
"n C A D ) ~ ~ %.%.>.,.<.<.,.,.<.<.3.3.4.d.k.R.l.d.4.3.3.;.=.=.=.' ' ~ ",
"$ & = - - - x b b n C D A D S N N D $.$.$.Y.8XP.$.S b = # % % # % % , ",
"; < < H K K P Y T T } 8.9.9.e.#.#.,.-.7.4.k.8Xk.4.7.,.( / G G G F F G ",
"1 L I I o.O.z.z.z.z.B.Z.Z.Z.V.V.V.S.p.s.g.I.8XI.j.h.a.H.C.C.B.N.w.@.@.",
"g g h j j +.x.x.c.x.c.n.K.M.n.v.v.m.J.L.U.Y.6XY.Y.T.T.L.3XK.M.M.n.b.b.",
"t t s s d f k k k k @X&X>X;X*X&X&X*X<X,X4X5X5X4X3X3X,X,X<X;X;X:X&XoX+.",
"e e w w r u p a d '.]..XOX+X+X+X+X+X-X;X>X2X2X>X-X=X+XOXOXOXXX X{._._.",
"7 7 8 0 0 0 q y i '._.'. XXXOXXXXX.X.XOX$X-X%XOXXX.X{.[.).).`.^.~.~.~.",
"3 5 5 5 5 6 7 7 0 w p p ^.{. X{.`.`.[.{.[.{.}.#X}.[.).(./.W.E.i u u i ",
"2 3 3 3 4 5 5 6 7 0 r u p p p Q.Q.Q.Q.Q.Q./.(.).(.Q././.W.u y q 8 8 8 ",
"X 2 2 2 2 2 2 3 5 5 5 7 9 0 w r r w w u u i W.E.E.i i i i q q 8 6 6 6 ",
"        . . . . X X 2 3 5 7 7 7 7 0 0 q q 0 q w q 8 0 0 7 5 5 4 4 3 3 "
};
